# xmcd
#
# Track frame offsets:
# 150
# 13667
# 25130
# 34525
# 44707
# 55515
# 68750
# 78700
# 94325
# 107902
# 131712
# 146267
# 158787
# 169842
# 183455
#
# Disc length: 2607 seconds
#
#
# Revision: 0
# Processed by: cddbd v1.5.1PL2 Copyright (c) Steve Scherf et al.
# Submitted via: FreeRIP 2.942 
#
DISCID=c90a2d0f
DTITLE=Various Artist - Blues and Soul - Volume 4
DYEAR=1900
DGENRE=Blues
TTITLE0=Jimmy Rushing - The way I Feel
TTITLE1=Muddy Waters - Dissastified
TTITLE2=Sam Lightnin´ Hopkins - Coffee House Blues
TTITLE3=James Brown - Papa Got A Brand New Bag - live
TTITLE4=Eddie Floyd - Feels Good
TTITLE5=Percy sledge- Take Time To Know Her
TTITLE6=The Primettes - Pretty Baby
TTITLE7=Joesl Webster - Cosmic Lover
TTITLE8=John Lee Hooker - Nightmare Blues
TTITLE9=Sam Lightnin´ Hopkins - early In The Morning Blues
TTITLE10=Donnie Elbert - Menphis (instrumental)
TTITLE11=Percy Sledge - It Tears Me Up
TTITLE12=Clyde McPhatter - Jackie Wilson - Learning The Blues
TTITLE13=Elmore James - Goodbye Baby
TTITLE14=Howlin Wolf - Brown Skin Woman
EXTD=
EXTT0=
EXTT1=
EXTT2=
EXTT3=
EXTT4=
EXTT5=
EXTT6=
EXTT7=
EXTT8=
EXTT9=
EXTT10=
EXTT11=
EXTT12=
EXTT13=
EXTT14=
PLAYORDER=
